<?xml version="1.0" encoding="UTF-8"?>
<svg xmlns="http://www.w3.org/2000/svg" width="64" height="64" viewBox="0 0 64 64">
  <defs>
    <linearGradient id="g" x1="0" y1="0" x2="1" y2="1">
      <stop offset="0" stop-color="#00AAEE"/>
      <stop offset="1" stop-color="#1677FF"/>
    </linearGradient>
  </defs>
  <circle cx="32" cy="32" r="30" fill="url(#g)"/>
  <path d="M23 39c4-7 6-10 7-14h-5v-4h7c0-1 1-3 1-4h4c0 1-1 3-1 4h6v4h-7c-1 4-2 7-4 11 3 2 7 3 13 3v4c-7 0-12-2-16-4-3 2-6 4-10 4-3 0-5-2-5-5 0-3 3-6 7-6 2 0 5 1 7 2z" fill="#fff" opacity="0.95"/>
</svg>

